<svg fill="none" height="190" viewBox="0 0 190 190" width="190" xmlns="http://www.w3.org/2000/svg"><circle cx="87" cy="87" fill="#d22" r="87"/><path clip-rule="evenodd" d="m150.795 129.641 34.816 34.835c5.852 5.857 5.852 15.351 0 21.208-5.896 5.754-15.302 5.754-21.197 0l-34.816-34.827c-32.8698 21.987-77.048 15.441-102.1377-15.134-25.08965-30.576-22.90705-75.2068 5.046-103.1851 27.9531-27.97829 72.5587-30.17786 103.1267-5.0853 30.567 25.0926 37.125 69.2928 15.162 102.1884zm-9.512-42.68c0-30.0285-24.33-54.3714-54.3417-54.3714-29.9984.0331-54.3086 24.3566-54.3417 54.3714 0 30.029 24.3296 54.371 54.3417 54.371 30.0117 0 54.3417-24.342 54.3417-54.371z" fill="#fafafa" fill-rule="evenodd"/></svg>