<svg fill="none" height="181" viewBox="0 0 180 181" width="180" xmlns="http://www.w3.org/2000/svg"><path d="m0 0h180v180h-180z" fill="#d22"/><path d="m172.98 72.8625c-1.298-1.4475-3.495-1.6575-5.047-.4875l-10.891 8.1975c-.09.0675-.187.1425-.277.225l-.292.2025-12.42 9.3525c-.443.33-.691.8625-.661 1.4175.045.6825.023 1.365-.067 2.04-.892 6.15-6.593 10.41-12.743 9.525-6.15-.893-10.409-6.5925-9.524-12.7425.885-6.135 6.577-10.395 12.712-9.525.675.0975 1.342.27 1.987.5025.51.18 1.073.09 1.501-.2325l5.249-3.93c1.658-1.245 1.995-3.5925.75-5.25l-6.45-8.5875c-.697-.93-1.777-1.485-2.939-1.5-.39-.0075-.78-.0375-1.17-.09-6.15-.8925-10.41-6.5925-9.525-12.7425s6.592-10.41 12.742-9.525c6.135.885 10.395 6.5775 9.525 12.7125-.06.39-.142.7725-.24 1.1475-.3 1.11-.075 2.3025.623 3.2325l6.427 8.595c1.245 1.6575 3.592 1.995 5.25.75l9.427-7.095c.758-.57 1.268-1.41 1.433-2.34.255-1.3875.382-2.7975.39-4.215 0-14.4975-11.753-26.25-26.25-26.25-.03.0075-.06-.0225-.068-.0525v-.0075c-1.035-14.7375-13.282-26.1675-28.057-26.19-6.292 0-12.398 2.1375-17.325 6.0525-.9.7125-1.425 1.8-1.425 2.9475v66c0 3.105-2.52 5.625-5.625 5.625s-5.625-2.52-5.625-5.625v-66c0-1.1475-.525-2.235-1.425-2.9475-4.9275-3.915-11.0325-6.0525-17.325-6.0525-14.775.0225-27.0225 11.4525-28.0575 26.19 0 .03-.03.06-.06.06h-.0075c-14.4975 0-26.25 11.7525-26.25 26.25.0075 1.41.1425 2.82.3975 4.2075.165.93.675 1.77 1.4325 2.34l9.42 7.1025c1.6575 1.245 4.005.9075 5.25-.75l6.45-8.565c.6975-.93.9225-2.13.615-3.2475-.0975-.375-.18-.7575-.24-1.1475-.87-6.15 3.405-11.8425 9.5625-12.72 6.15-.87 11.8425 3.4125 12.7125 9.5625.87 6.1425-3.39 11.8275-9.525 12.7125-.39.0525-.78.0825-1.17.09-1.1625.015-2.2425.57-2.94 1.5l-6.465 8.5875c-1.245 1.6575-.9075 4.005.75 5.25l5.25 3.93c.4275.3225.99.4125 1.5.24.645-.24 1.3125-.4125 1.9875-.51 6.15-.87 11.8425 3.405 12.72 9.5625s-3.405 11.842-9.5625 12.72c-6.1425.87-11.8275-3.39-12.7125-9.525-.09-.675-.12-1.3575-.075-2.0325.0375-.555-.21-1.095-.66-1.425l-12.6375-9.5325-.075-.045c-.0825-.075-.1725-.1425-.2625-.21l-10.905-8.22c-1.5525-1.17-3.75-.96-5.0475.4875-4.3575 4.665-6.8475 10.7625-7.02 17.1375.36 8.8575 4.9725 17.003 12.3825 21.87 1.515 1.035 2.055 3.007 1.2825 4.672-6.0525 13.058-.3675 28.553 12.69 34.605.615.285 1.2375.548 1.875.78 1.38.525 2.94.188 3.9825-.855l12.5625-12.555c.39-.39.5625-.96.4425-1.5-.1425-.66-.2175-1.342-.2175-2.017 0-6.21 5.04-11.25 11.25-11.25s11.25 5.04 11.25 11.25-5.04 11.25-11.25 11.25c-.6825 0-1.365-.075-2.0325-.225-.5475-.113-1.11.053-1.5.45l-12.135 12.143c-1.1025 1.08-1.4325 2.715-.8325 4.132 5.8575 14.258 22.1625 21.06 36.42 15.202 2.4225-.997 4.6875-2.324 6.7425-3.952.9075-.712 1.4325-1.8 1.4325-2.948v-17.302c0-3.105 2.52-5.625 5.625-5.625s5.625 2.52 5.625 5.625v17.25c0 1.147.525 2.235 1.4325 2.948 12.0455 9.615 29.6025 7.65 39.2245-4.395 1.65-2.063 2.993-4.358 3.998-6.803.593-1.402.27-3.023-.802-4.103l-12.173-12.172c-.398-.39-.96-.563-1.5-.45-.667.15-1.35.225-2.032.225-6.21-.008-11.251-5.047-11.243-11.257s5.047-11.251 11.257-11.243 11.243 5.04 11.243 11.25c0 .682-.075 1.358-.217 2.025-.12.54.052 1.11.442 1.5l12.525 12.555c1.043 1.042 2.603 1.38 3.983.855 13.492-5.018 20.362-20.018 15.345-33.51-.233-.638-.495-1.26-.78-1.875-.773-1.665-.233-3.638 1.282-4.673 7.425-4.86 12.053-13.0045 12.42-21.877-.173-6.375-2.663-12.4725-7.02-17.1375z" fill="#fafafa"/></svg>