<svg fill="none" height="190" viewBox="0 0 181 190" width="181" xmlns="http://www.w3.org/2000/svg"><path d="m1 0h180v171h-180z" fill="#d22"/><g fill="#fafafa"><path clip-rule="evenodd" d="m15.677 10h150.645c8.191.0989 14.757 6.8088 14.677 15v45c.08 8.1941-6.491 14.9052-14.685 15h-86.9995l-30.21 24.57c-2.2454 1.826-5.3412 2.198-7.9548.954-2.6135-1.243-4.2783-3.88-4.2777-6.774v-18.75h-21.195c-8.19104-.0989-14.756676-6.8088-14.677512-15v-45c-.079164-8.1912 6.486472-14.9011 14.677512-15zm56.2428 61.68c1.3375-1.0872 3.0088-1.6805 4.7325-1.68h87.4727c1.035 0 1.875-.8395 1.875-1.875v-41.25c0-1.0355-.84-1.875-1.875-1.875h-146.5652c-1.0339.0123-1.8642.8561-1.86 1.89l.3 41.25c.0081 1.0239.8361 1.8518 1.86 1.86h26.5125c4.1421 0 7.5 3.3579 7.5 7.5v10.5z" fill-rule="evenodd"/><path d="m166.322 92.5h-82.3347c-4.1421 0-7.5 3.3579-7.5 7.5 0 4.142 3.3579 7.5 7.5 7.5h80.1527c1.03 0 1.867.83 1.875 1.86l.292 33.75c.009.5-.186.982-.54 1.335-.354.355-.834.554-1.335.555h-26.805c-4.142 0-7.5 3.358-7.5 7.5v12.795l-19.672-18.285c-1.388-1.291-3.212-2.009-5.108-2.01h-87.4871c-1.0239-.008-1.8519-.836-1.86-1.86l-.2925-33.75c-.0083-.5.1865-.982.54-1.335.3501-.351.8242-.55 1.32-.555h5.9325c4.1421 0 7.5-3.358 7.5-7.5 0-4.1421-3.3579-7.5-7.5-7.5h-7.8225c-8.19107.0989-14.756709 6.8088-14.677546 15v37.5c-.079163 8.191 6.486476 14.901 14.677546 15h86.7226l30.127 27.975c2.184 2.025 5.358 2.566 8.089 1.38 2.731-1.187 4.502-3.877 4.511-6.855v-22.5h21.195c8.191-.099 14.757-6.809 14.678-15v-37.5c.079-8.1912-6.487-14.9011-14.678-15z"/></g></svg>