<svg fill="none" height="180" viewBox="0 0 180 180" width="180" xmlns="http://www.w3.org/2000/svg"><path d="m0 0h180v180h-180z" fill="#d22"/><g clip-rule="evenodd" fill="#fafafa" fill-rule="evenodd"><path d="m15 172.5c-8.27401-.025-14.975289-6.726-15-15v-135c0-8.2843 6.71573-15 15-15h150c8.274.02471 14.975 6.726 15 15v135c-.025 8.274-6.726 14.975-15 15zm9.375-150c-5.1742.0083-9.3667 4.2008-9.375 9.375v116.25c.0041 5.176 4.1991 9.371 9.375 9.375h131.25c5.176-.004 9.371-4.199 9.375-9.375v-116.25c-.008-5.1742-4.201-9.3667-9.375-9.375z"/><path d="m157.5 33.75c0-2.0711-1.778-3.75-3.971-3.75h-127.0584c-2.1929 0-3.9706 1.6789-3.9706 3.75v112.5c0 2.071 1.7777 3.75 3.9706 3.75h127.0584c2.193 0 3.971-1.679 3.971-3.75zm-84.9333 47.2161c3.2444 2.9185 3.2444 7.6493 0 10.5678l-20.7775 18.6841c-2.0867 1.943-5.1767 2.722-8.0825 2.038s-5.175-2.724-5.9356-5.337.1059-5.392 2.2664-7.2686l13.4305-12.0776c.3908-.3505.6104-.8264.6104-1.3228s-.2196-.9723-.6104-1.3228l-13.4305-12.0776c-2.1605-1.8764-3.027-4.6552-2.2664-7.2682s3.0298-4.6537 5.9356-5.3376c2.9058-.684 5.9958.0952 8.0825 2.038zm53.6833 31.5339c4.832 0 8.75-3.358 8.75-7.5s-3.918-7.5-8.75-7.5h-35c-4.8325 0-8.75 3.358-8.75 7.5s3.9175 7.5 8.75 7.5z"/></g></svg>